<?xml version="1.0" encoding="utf-8"?>
<!-- Generator: Adobe Illustrator 15.0.2, SVG Export Plug-In . SVG Version: 6.00 Build 0)  -->
<!DOCTYPE svg PUBLIC "-//W3C//DTD SVG 1.1//EN" "http://www.w3.org/Graphics/SVG/1.1/DTD/svg11.dtd">
<svg version="1.1" id="Слой_1" xmlns="http://www.w3.org/2000/svg" xmlns:xlink="http://www.w3.org/1999/xlink" x="0px" y="0px"
	 width="96px" height="96px" viewBox="0 0 96 96" enable-background="new 0 0 96 96" xml:space="preserve">
<rect fill="none" width="96" height="96"/>
<linearGradient id="SVGID_1_" gradientUnits="userSpaceOnUse" x1="297.623" y1="-363.9004" x2="297.623" y2="-283.9004" gradientTransform="matrix(1 0 0 -1 -249.5996 -275.9004)">
	<stop  offset="0" style="stop-color:#A40B7E"/>
	<stop  offset="1" style="stop-color:#F639A9"/>
</linearGradient>
<path fill="url(#SVGID_1_)" d="M88,48c0,29.633-10.359,40-39.977,40C18.406,88,8.046,77.633,8.046,48c0-29.634,10.36-40,39.977-40
	C77.643,8,88,18.367,88,48z"/>
<linearGradient id="SVGID_2_" gradientUnits="userSpaceOnUse" x1="3241.7734" y1="-4663.4526" x2="3241.7734" y2="-4584.2095" gradientTransform="matrix(1 0 0 -1 -3193.7949 -4575.7051)">
	<stop  offset="0" style="stop-color:#1C171B;stop-opacity:0.6"/>
	<stop  offset="1" style="stop-color:#FFFFFF"/>
</linearGradient>
<path opacity="0.4" fill="url(#SVGID_2_)" enable-background="new    " d="M47.977,8C18.358,8,8,18.366,8,48
	c0,29.633,10.359,40,39.977,40c29.621,0,39.978-10.366,39.978-40C87.954,18.366,77.598,8,47.977,8z M47.977,86.996
	C18.833,86.996,9,77.156,9,47.999C8.999,18.839,18.835,9.002,47.977,9.002c29.144,0,38.979,9.841,38.979,38.998
	C86.955,77.159,77.117,86.996,47.977,86.996z"/>
<g>
	<path opacity="0.15" fill="#1A171B" d="M48.004,22.235c-14.085,0-25.499,11.38-25.499,25.414s11.414,25.415,25.499,25.415
		c14.078,0,25.499-11.383,25.501-25.415C73.505,33.614,62.083,22.235,48.004,22.235z M48.004,60.65c-7.181,0-13-5.821-13-13.001
		c0-7.178,5.819-12.999,13-12.999c7.177,0,13,5.82,13,12.999C61.004,54.828,55.182,60.65,48.004,60.65z"/>
	<path opacity="0.2" fill="#1A171B" d="M48.004,22.235c-14.085,0-25.499,11.38-25.499,25.414s11.414,25.415,25.499,25.415
		c14.078,0,25.499-11.383,25.501-25.415C73.505,33.614,62.083,22.235,48.004,22.235z M48.004,62.15c-8.009,0-14.5-6.493-14.5-14.501
		c0-8.007,6.49-14.499,14.5-14.499c8.005,0,14.5,6.492,14.5,14.499C62.504,55.656,56.01,62.15,48.004,62.15z"/>
	<path opacity="0.25" fill="#1A171B" enable-background="new    " d="M48.004,22.235c-14.085,0-25.499,11.38-25.499,25.414
		s11.414,25.415,25.499,25.415c14.078,0,25.499-11.383,25.501-25.415C73.505,33.614,62.083,22.235,48.004,22.235z M48.004,63.65
		c-8.838,0-16-7.165-16-16.001c0-8.835,7.162-15.999,16-15.999c8.833,0,16,7.163,16,15.999C64.004,56.484,56.838,63.65,48.004,63.65
		z"/>
	<linearGradient id="SVGID_3_" gradientUnits="userSpaceOnUse" x1="48.0054" y1="76.5635" x2="48.0054" y2="18.9865">
		<stop  offset="0.0061" style="stop-color:#D3D3D3"/>
		<stop  offset="1" style="stop-color:#9C9C9C"/>
	</linearGradient>
	<path fill="url(#SVGID_3_)" d="M48.004,22.235c-14.085,0-25.499,11.38-25.499,25.414s11.414,25.415,25.499,25.415
		c14.078,0,25.499-11.383,25.501-25.415C73.505,33.614,62.083,22.235,48.004,22.235z M48.004,65.15c-9.667,0-17.5-7.837-17.5-17.501
		c0-9.663,7.833-17.499,17.5-17.499c9.662,0,17.5,7.834,17.5,17.499C65.504,57.313,57.666,65.15,48.004,65.15z"/>
	<linearGradient id="SVGID_4_" gradientUnits="userSpaceOnUse" x1="48.0054" y1="66.1504" x2="48.0054" y2="29.1509">
		<stop  offset="0" style="stop-color:#FFFFFF"/>
		<stop  offset="1" style="stop-color:#1A171B;stop-opacity:0.4"/>
	</linearGradient>
	<path opacity="0.4" fill="url(#SVGID_4_)" enable-background="new    " d="M48.004,29.15c-10.219,0-18.5,8.284-18.5,18.499
		c0,10.216,8.281,18.501,18.5,18.501c10.213,0,18.5-8.286,18.5-18.501C66.505,37.433,58.218,29.15,48.004,29.15z M48.004,65.15
		c-9.667,0-17.5-7.837-17.5-17.501c0-9.663,7.833-17.499,17.5-17.499c9.662,0,17.5,7.834,17.5,17.499
		C65.504,57.313,57.666,65.15,48.004,65.15z"/>
	<path opacity="0.15" fill="#1A171B" enable-background="new    " d="M18.161,57.635C18.05,57.363,18.169,57.719,18.161,57.635
		L18.161,57.635z M29.941,23.183C30.202,22.969,29.984,23.132,29.941,23.183L29.941,23.183z M66.984,73.62
		C66.815,73.757,66.908,73.687,66.984,73.62L66.984,73.62z M77.842,57.634C77.835,57.715,77.952,57.361,77.842,57.634L77.842,57.634
		z M66.059,23.186C66.012,23.132,65.799,22.973,66.059,23.186L66.059,23.186z M78.988,47.886L84,46.166
		c-0.138-1.491-0.619-5.422-0.935-6.854l-5.113-0.254l-0.438-1.145l3.898-2.998c-0.591-1.364-2.013-4.903-2.762-6.173l-5.424,1.489
		l-0.539-0.708l2.847-4.428c-0.979-1.112-3.767-3.641-4.882-4.621l-4.443,2.834l-0.462-0.297l1.493-5.157
		c-1.27-0.749-4.575-2.164-5.94-2.756l-3.011,3.886l-1.648-0.441l-0.26-5.348c-1.431-0.316-3.882-0.552-5.37-0.693l-1.98,4.995
		c-0.501-0.022-1.551-0.023-2.053,0L44.996,12.5c-1.492,0.142-3.941,0.624-5.375,0.938l-0.255,5.348l-1.521,0.589l-3.391-4.281
		c-1.368,0.593-4.421,2.258-5.692,3.007l1.493,4.905l-0.466,0.3l-4.692-3.084c-1.112,0.981-3.896,4.005-4.881,5.112l3.095,4.431
		l-0.539,0.714l-5.424-1.739c-0.75,1.273-2.415,4.812-3.009,6.175l4.146,3l-0.437,1.145l-5.11,0.254
		c-0.316,1.433-0.795,4.862-0.937,6.354l5.011,1.974l0.002,0.788l-4.761,1.721c0.143,1.489,0.63,5.422,0.95,6.855l4.869,0.255
		l0.192,0.631l-3.897,3.248c0.596,1.362,2.27,5.404,3.027,6.675l4.926-1.491l0.37,0.405l-3.185,4.709
		c0.988,1.112,4.026,4.14,5.142,5.126l4.605-3.346l0.249,0.169l-1.712,5.271c1.281,0.754,5.581,2.914,6.955,3.509
		c0,0,3.506-4.349,3.512-4.347l0.126,5.742c1.445,0.32,6.379,0.799,7.879,0.938l1.745-5.947l1.743,5.946
		c1.502-0.14,6.188-0.621,7.633-0.94l0.151-5.988l2.992,4.593c1.377-0.593,6.414-2.512,7.696-3.258l-1.489-5.166l0.433-0.263
		l4.448,3.08c1.125-0.982,3.906-3.506,4.896-4.618l-3.342-4.927l0.626-0.776l4.824,1.328c0.753-1.275,2.427-5.309,3.022-6.675
		l-3.896-2.998c0.046-0.12,0.125-0.393,0.19-0.634l4.872-0.002c0.318-1.437,0.804-5.616,0.945-7.109l-4.759-1.72L78.988,47.886z
		 M48,70.421c-12.383,0-22.422-9.92-22.422-22.422c0-12.504,10.038-22.419,22.422-22.419c12.382,0,22.422,9.917,22.422,22.419
		C70.422,60.501,60.382,70.421,48,70.421z"/>
	<path opacity="0.2" fill="#1A171B" enable-background="new    " d="M76.615,57.237C76.608,57.316,76.721,56.978,76.615,57.237
		L76.615,57.237z M19.388,57.239C19.282,56.979,19.396,57.319,19.388,57.239L19.388,57.239z M77.755,47.646c0,0,0-0.005,0-0.009
		L83,45.761c-0.133-1.429-0.594-4.719-0.896-6.092l-5.383-0.244c-0.252-0.936-0.078-0.202-0.42-1.098l4.217-3.354
		c-0.566-1.308-1.93-4.222-2.647-5.44l-5.201,1.428c-0.53-0.809-0.149-0.41-0.757-1.159l2.97-4.486
		c-0.938-1.066-3.133-3.251-4.202-4.191l-4.5,2.958c-0.752-0.606-0.353-0.232-1.162-0.764l1.432-5.185
		c-1.217-0.718-3.668-1.835-4.977-2.404l-3.367,3.966c-0.901-0.342-0.881-0.408-1.82-0.663l-0.249-5.368
		c-1.372-0.303-3.722-0.53-5.149-0.665l-1.898,5.03c-0.48-0.021-1.487-0.022-1.969,0l-1.9-5.03c-1.43,0.136-3.779,0.598-5.154,0.899
		l-0.245,5.368c-0.941,0.252-0.922,0.319-1.823,0.662l-3.366-4.202c-1.312,0.569-3.76,1.926-4.979,2.644l1.432,4.933
		c-0.812,0.533-0.411,0.171-1.166,0.778l-4.499-2.958c-1.066,0.941-3.256,3.361-4.201,4.423l2.968,4.488
		c-0.606,0.75-0.228,0.116-0.757,0.925l-5.201-1.428c-0.72,1.221-2.076,4.135-2.646,5.442l4.216,3.356
		c-0.343,0.896-0.166,0.161-0.419,1.098l-5.38,0.244c-0.303,1.374-0.763,4.662-0.898,6.092l5.248,1.88c0,0.002,0,0.002,0,0.004
		c0,0.495,0.016,0.275,0.038,0.764l-5.045,1.89c0.137,1.428,0.604,4.959,0.911,6.334l5.148,0.244c0.063,0.229,0.14,0.49,0.184,0.605
		l-4.217,3.594c0.572,1.307,1.937,4.463,2.663,5.682l5.203-1.43l0.746,0.9l-3.206,4.723c0.947,1.066,3.381,3.49,4.451,4.436
		l4.516-3.209l0.65,0.514l-1.433,4.943c1.228,0.723,4.632,2.555,5.949,3.125l3.367-4.205l0.842,0.318l0.239,5.225
		c1.385,0.307,5.637,0.766,7.076,0.899l1.673-5.703L49.675,83c1.44-0.135,5.694-0.596,7.08-0.652l0.243-5.603l0.577-0.245
		l2.913,4.26c1.32-0.568,5.431-2.169,6.66-2.885l-1.403-4.867l0.87-0.578l4.266,2.954c1.078-0.942,3.506-3.362,4.454-4.429
		l-3.204-4.725l0.743-0.9l5.202,1.43c0.722-1.223,2.087-4.611,2.658-5.921l-4.215-3.354l0.183-0.607l5.151-0.242
		c0.305-1.377,0.771-4.906,0.906-6.338l-4.986-1.868L77.755,47.646z M18.259,47.648l0.026,0.009
		C18.274,47.894,18.266,47.769,18.259,47.648z M48,69.5c-11.874,0-21.5-9.513-21.5-21.501C26.5,36.008,36.125,26.5,48,26.5
		c11.873,0,21.5,9.509,21.5,21.499C69.5,59.987,59.873,69.5,48,69.5z"/>
	<path opacity="0.25" fill="#1A171B" enable-background="new    " d="M77.313,46.964l4.982-1.864
		c-0.134-1.41-0.354-3.731-0.652-5.088l-5.31-0.24c-0.252-0.922-0.313-0.892-0.647-1.777l4.162-3.309
		c-0.564-1.29-1.67-3.472-2.381-4.676l-5.133,1.409c-0.521-0.797-0.375-0.864-0.977-1.605l2.931-4.424
		c-0.933-1.052-2.627-2.745-3.677-3.673l-4.444,2.917c-0.739-0.598-0.812-0.691-1.61-1.215l1.414-5.114
		c-1.201-0.707-3.158-1.581-4.447-2.141l-3.319,4.143c-0.89-0.338-1.336-0.631-2.265-0.884l-0.242-5.296
		c-1.356-0.3-3.211-0.521-4.62-0.658l-1.873,4.963c-0.476-0.022-0.718-0.036-1.199-0.036c-0.483,0-0.726,0.015-1.203,0.036
		l-1.871-4.963c-1.412,0.137-3.269,0.361-4.623,0.658l-0.241,5.295c-0.93,0.252-1.373,0.547-2.262,0.885l-3.32-4.143
		c-1.292,0.561-3.244,1.667-4.446,2.376l1.41,5.113c-0.798,0.524-0.867,0.382-1.612,0.981l-4.439-2.918
		c-1.05,0.929-2.748,2.623-3.678,3.674l2.928,4.423c-0.597,0.74-0.689,0.808-1.211,1.604l-5.129-1.409
		c-0.71,1.2-1.587,3.386-2.148,4.678l4.159,3.308c-0.335,0.883-0.396,0.853-0.645,1.775l-5.313,0.239
		c-0.298,1.356-0.52,3.677-0.653,5.088l4.981,1.864c-0.021,0.46-0.035,0.221-0.035,0.686c0,0.486,0.014,0.504,0.039,0.985
		l-4.978,1.861c0.136,1.41,0.597,3.966,0.899,5.326l5.076,0.24c0.253,0.92,0.312,0.649,0.646,1.523l-4.392,3.543
		c0.565,1.289,1.679,3.479,2.394,4.682l5.134-1.408c0.519,0.787,0.608,0.85,1.199,1.582l-3.164,4.656
		c0.937,1.047,2.64,2.75,3.699,3.684l4.439-2.922l1.313,0.864l-1.375,4.972c1.21,0.707,3.64,2.056,4.941,2.617l3.319-4.146
		c0.879,0.329,0.837,0.388,1.752,0.631l0.242,5.3c1.364,0.297,4.403,0.521,5.823,0.654l1.872-5.43c0.468,0.021,0,0.035,0.475,0.035
		c0.472,0,0.006-0.016,0.472-0.035l1.872,5.43c1.422-0.133,4.459-0.59,5.821-0.893l0.242-5.291c0.918-0.25,0.403-0.072,1.278-0.404
		l3.324,4.146c1.305-0.562,4.198-1.904,5.409-2.619l-1.372-4.958l1.307-0.874l4.44,2.92c1.058-0.934,2.763-2.635,3.696-3.682
		l-3.157-4.658c0.589-0.733,0.679-0.795,1.196-1.58l5.132,1.404c0.718-1.199,1.828-3.623,2.392-4.916l-4.258-3.204l0.51-1.624
		l5.08-0.242c0.301-1.359,0.762-3.914,0.896-5.325l-4.976-1.861L77.313,46.964z M48.001,70C35.853,70,26,60.271,26,48.002
		C26,35.731,35.852,26,48.001,26C60.148,26,70,35.73,70,48.002C69.999,60.266,60.15,70,48.001,70z"/>
	
		<linearGradient id="SVGID_5_" gradientUnits="userSpaceOnUse" x1="1558.6025" y1="2234.7588" x2="1558.6025" y2="2167.3418" gradientTransform="matrix(1 0 0 1 -1510.5977 -2153.4004)">
		<stop  offset="0" style="stop-color:#8A8A8A"/>
		<stop  offset="0.5273" style="stop-color:#D7D7D8"/>
		<stop  offset="1" style="stop-color:#EDEDED"/>
	</linearGradient>
	<path fill="url(#SVGID_5_)" d="M76.95,47.649c0-0.458-0.015-0.913-0.037-1.368l4.913-1.839c-0.133-1.391-0.354-2.757-0.645-4.095
		l-5.238-0.238c-0.244-0.908-0.535-1.802-0.865-2.677l4.1-3.262c-0.554-1.272-1.188-2.504-1.886-3.687l-5.06,1.387
		c-0.517-0.786-1.071-1.545-1.656-2.275l2.888-4.366c-0.918-1.033-1.897-2.013-2.938-2.928L66.15,25.18
		c-0.733-0.59-1.496-1.144-2.283-1.661l1.395-5.042c-1.189-0.701-2.42-1.328-3.693-1.883l-3.274,4.088
		c-0.878-0.335-1.778-0.625-2.692-0.872l-0.24-5.222c-1.338-0.294-2.703-0.514-4.094-0.646l-1.843,4.892
		c-0.474-0.021-0.942-0.037-1.419-0.037c-0.476,0-0.947,0.016-1.418,0.037l-1.845-4.893c-1.391,0.134-2.757,0.351-4.095,0.646
		l-0.236,5.222c-0.918,0.247-1.817,0.538-2.695,0.871l-3.272-4.086c-1.273,0.555-2.506,1.181-3.693,1.884l1.395,5.042
		c-0.79,0.516-1.554,1.071-2.286,1.661l-4.378-2.879c-1.038,0.918-2.016,1.896-2.934,2.93l2.886,4.365
		c-0.588,0.731-1.141,1.489-1.656,2.275l-5.06-1.387c-0.701,1.184-1.331,2.415-1.887,3.688l4.103,3.262
		c-0.331,0.874-0.624,1.766-0.869,2.675l-5.237,0.236c-0.295,1.336-0.513,2.703-0.646,4.095l4.914,1.839
		c-0.02,0.454-0.035,0.909-0.035,1.368c0,0.482,0.013,0.958,0.037,1.428l-4.91,1.84c0.135,1.395,0.359,2.76,0.655,4.098l5.241,0.239
		c0.248,0.906,0.538,1.79,0.869,2.657l-4.102,3.261c0.557,1.276,1.193,2.513,1.899,3.694l5.063-1.387
		c0.511,0.775,1.06,1.527,1.646,2.252l-2.89,4.361c0.924,1.038,1.909,2.016,2.952,2.938l4.38-2.879
		c0.723,0.576,1.475,1.121,2.257,1.634l-1.396,5.045c1.194,0.698,2.433,1.336,3.717,1.888l3.271-4.093
		c0.867,0.333,1.752,0.616,2.654,0.862l0.239,5.222c1.348,0.296,2.721,0.517,4.122,0.649l1.845-4.896
		c0.46,0.021,0.926,0.038,1.392,0.038c0.464,0,0.933-0.019,1.396-0.038l1.847,4.896c1.399-0.135,2.774-0.354,4.118-0.649l0.24-5.222
		c0.904-0.248,1.789-0.528,2.654-0.862l3.273,4.093c1.279-0.552,2.52-1.188,3.714-1.888l-1.396-5.045
		c0.78-0.513,1.534-1.058,2.258-1.634l4.383,2.879c1.043-0.924,2.025-1.897,2.949-2.936l-2.885-4.365
		c0.584-0.729,1.135-1.475,1.646-2.252l5.061,1.387c0.705-1.184,1.34-2.418,1.896-3.693l-4.102-3.261
		c0.332-0.868,0.625-1.755,0.873-2.657l5.242-0.24c0.294-1.337,0.52-2.703,0.652-4.097l-4.91-1.84
		C76.938,48.605,76.95,48.131,76.95,47.649z M48.004,71.796c-13.382,0-24.227-10.813-24.227-24.147
		c0-13.333,10.845-24.145,24.227-24.145c13.376,0,24.229,10.811,24.229,24.145C72.23,60.98,61.379,71.796,48.004,71.796z"/>
	
		<linearGradient id="SVGID_6_" gradientUnits="userSpaceOnUse" x1="1558.5977" y1="2232.7793" x2="1558.5977" y2="2169.3203" gradientTransform="matrix(1 0 0 1 -1510.5977 -2153.4004)">
		<stop  offset="0" style="stop-color:#000000;stop-opacity:0.2"/>
		<stop  offset="1" style="stop-color:#1A171B;stop-opacity:0.1"/>
	</linearGradient>
	<path opacity="0.25" fill="url(#SVGID_6_)" enable-background="new    " d="M16.934,40.25c-0.383,1.601-0.642,3.249-0.772,4.93
		l2.929,1.097c-0.021,0.456-0.036,0.91-0.036,1.371c0,0.48,0.014,0.958,0.038,1.429l-2.926,1.096
		c0.132,1.688,0.396,3.334,0.781,4.938l3.13,0.142c0.249,0.903,0.538,1.79,0.869,2.653l-2.451,1.953
		c0.646,1.549,1.41,3.035,2.281,4.447l3.029-0.828c0.512,0.776,1.062,1.528,1.647,2.25l-1.726,2.604
		c1.09,1.271,2.278,2.452,3.553,3.539l2.618-1.722c0.722,0.576,1.477,1.119,2.257,1.631l-0.836,3.021
		c1.419,0.864,2.916,1.623,4.472,2.268l1.957-2.447c0.867,0.33,1.752,0.613,2.655,0.861l0.142,3.119
		c1.61,0.385,3.268,0.643,4.964,0.774l1.099-2.918c0.46,0.019,0.927,0.033,1.394,0.033c0.466,0,0.93-0.015,1.395-0.033l1.1,2.918
		c1.695-0.133,3.354-0.392,4.964-0.778l0.144-3.117c0.902-0.248,1.787-0.529,2.652-0.857l1.957,2.445
		c1.561-0.645,3.053-1.402,4.473-2.268l-0.836-3.021c0.781-0.512,1.535-1.057,2.258-1.631l2.615,1.718
		c1.273-1.082,2.463-2.265,3.555-3.538l-1.727-2.604c0.588-0.721,1.137-1.473,1.646-2.248l3.027,0.826
		c0.871-1.41,1.637-2.896,2.278-4.445l-2.453-1.951c0.331-0.865,0.624-1.749,0.874-2.656l3.133-0.143
		c0.385-1.604,0.646-3.25,0.777-4.935l-2.926-1.1c0.023-0.472,0.039-0.946,0.039-1.429c0-0.458-0.016-0.914-0.037-1.368l2.929-1.097
		c-0.131-1.684-0.388-3.332-0.771-4.932l-3.131-0.142c-0.244-0.908-0.535-1.802-0.863-2.676l2.449-1.952
		c-0.643-1.543-1.396-3.031-2.27-4.442l-3.021,0.832c-0.519-0.785-1.073-1.545-1.66-2.274l1.726-2.607
		c-1.089-1.266-2.267-2.447-3.534-3.528l-2.613,1.72c-0.736-0.59-1.498-1.145-2.287-1.661l0.837-3.014
		c-1.419-0.866-2.904-1.623-4.448-2.265l-1.962,2.441c-0.877-0.334-1.778-0.625-2.692-0.872l-0.137-3.117
		c-1.604-0.382-3.253-0.642-4.936-0.771l-1.1,2.914c-0.471-0.023-0.941-0.038-1.418-0.038c-0.476,0-0.947,0.016-1.417,0.036
		l-1.101-2.914c-1.686,0.131-3.333,0.39-4.935,0.772l-0.14,3.119c-0.918,0.247-1.818,0.538-2.698,0.872l-1.958-2.442
		c-1.549,0.64-3.035,1.397-4.45,2.266l0.836,3.016c-0.789,0.516-1.553,1.07-2.286,1.66l-2.614-1.719
		c-1.268,1.082-2.45,2.262-3.533,3.528l1.724,2.604c-0.59,0.733-1.141,1.491-1.657,2.277l-3.028-0.833
		c-0.866,1.413-1.625,2.898-2.267,4.443l2.452,1.95c-0.331,0.874-0.624,1.764-0.869,2.675L16.934,40.25z M48.004,21.001
		c14.768,0,26.736,11.932,26.736,26.647c0,14.718-11.967,26.644-26.736,26.644c-14.763,0-26.737-11.926-26.737-26.645
		C21.267,32.933,33.237,21.001,48.004,21.001z"/>
	
		<linearGradient id="SVGID_7_" gradientUnits="userSpaceOnUse" x1="1558.6016" y1="2231.8701" x2="1558.6016" y2="2170.2324" gradientTransform="matrix(1 0 0 1 -1510.5977 -2153.4004)">
		<stop  offset="0" style="stop-color:#000000;stop-opacity:0.3"/>
		<stop  offset="1" style="stop-color:#1A171B;stop-opacity:0.15"/>
	</linearGradient>
	<path opacity="0.25" fill="url(#SVGID_7_)" enable-background="new    " d="M17.908,40.205c-0.425,1.721-0.704,3.5-0.827,5.32
		l2.011,0.754c-0.021,0.455-0.036,0.91-0.036,1.369c0,0.482,0.014,0.958,0.038,1.428l-2.009,0.755
		c0.127,1.823,0.409,3.601,0.839,5.326l2.153,0.096c0.249,0.903,0.539,1.791,0.87,2.655l-1.683,1.34
		c0.682,1.682,1.509,3.284,2.463,4.805l2.08-0.572c0.511,0.775,1.062,1.527,1.646,2.252l-1.188,1.793
		c1.163,1.379,2.446,2.65,3.83,3.813l1.802-1.188c0.723,0.578,1.474,1.123,2.257,1.636l-0.575,2.073
		c1.526,0.951,3.138,1.771,4.823,2.447l1.345-1.683c0.866,0.332,1.751,0.614,2.654,0.86l0.096,2.146
		c1.732,0.43,3.519,0.71,5.352,0.838l0.757-2.008c0.46,0.02,0.925,0.035,1.393,0.035c0.465,0,0.931-0.018,1.396-0.035l0.756,2.008
		c1.832-0.127,3.619-0.406,5.349-0.838l0.103-2.146c0.902-0.246,1.791-0.527,2.653-0.86l1.343,1.683
		c1.691-0.677,3.301-1.498,4.826-2.447l-0.574-2.073c0.781-0.513,1.534-1.058,2.26-1.636l1.803,1.188
		c1.383-1.162,2.668-2.438,3.83-3.813l-1.189-1.793c0.588-0.725,1.135-1.474,1.648-2.252l2.076,0.569
		c0.957-1.518,1.783-3.118,2.461-4.796l-1.688-1.346c0.332-0.865,0.625-1.749,0.873-2.652l2.155-0.099
		c0.433-1.724,0.714-3.501,0.842-5.325l-2.012-0.756c0.021-0.471,0.04-0.946,0.04-1.427c0-0.459-0.02-0.913-0.038-1.37l2.017-0.754
		c-0.129-1.819-0.406-3.596-0.83-5.319l-2.156-0.096c-0.248-0.91-0.535-1.802-0.864-2.677l1.681-1.338
		c-0.677-1.676-1.498-3.279-2.447-4.792l-2.076,0.569c-0.516-0.787-1.072-1.546-1.657-2.275l1.188-1.797
		c-1.16-1.375-2.433-2.645-3.813-3.803l-1.805,1.183c-0.731-0.589-1.492-1.143-2.281-1.66l0.572-2.071
		c-1.519-0.948-3.125-1.767-4.803-2.442l-1.346,1.675c-0.878-0.333-1.779-0.624-2.691-0.871l-0.099-2.147
		c-1.726-0.428-3.503-0.707-5.325-0.833l-0.753,2.005c-0.471-0.024-0.942-0.038-1.419-0.038c-0.475,0-0.946,0.014-1.417,0.038
		l-0.757-2.005c-1.821,0.126-3.602,0.406-5.324,0.832L40.41,19.81c-0.918,0.247-1.818,0.538-2.696,0.871l-1.346-1.675
		c-1.678,0.678-3.284,1.498-4.799,2.446l0.571,2.07c-0.79,0.517-1.554,1.072-2.287,1.661L28.055,24
		c-1.38,1.158-2.656,2.429-3.813,3.803l1.187,1.797c-0.588,0.729-1.141,1.488-1.656,2.275l-2.08-0.571
		c-0.951,1.515-1.77,3.117-2.448,4.793l1.684,1.34c-0.331,0.874-0.624,1.766-0.869,2.676L17.908,40.205z M48.004,21.787
		c14.33,0,25.946,11.577,25.946,25.862c0,14.285-11.616,25.865-25.946,25.865C33.672,73.512,22.05,61.934,22.05,47.649
		C22.05,33.365,33.671,21.787,48.004,21.787z"/>
	
		<linearGradient id="SVGID_8_" gradientUnits="userSpaceOnUse" x1="1558.5977" y1="2230.958" x2="1558.5977" y2="2171.1475" gradientTransform="matrix(1 0 0 1 -1510.5977 -2153.4004)">
		<stop  offset="0" style="stop-color:#000000;stop-opacity:0.4"/>
		<stop  offset="1" style="stop-color:#1A171B;stop-opacity:0.2"/>
	</linearGradient>
	<path opacity="0.25" fill="url(#SVGID_8_)" enable-background="new    " d="M18.883,40.162c-0.475,1.84-0.773,3.75-0.889,5.707
		l1.096,0.41c-0.021,0.456-0.035,0.911-0.035,1.371c0,0.482,0.011,0.958,0.037,1.428l-1.094,0.413
		c0.118,1.961,0.422,3.872,0.9,5.712l1.18,0.052c0.249,0.903,0.539,1.79,0.868,2.655l-0.915,0.73c0.716,1.81,1.604,3.53,2.644,5.15
		l1.129-0.313c0.513,0.776,1.063,1.528,1.648,2.252l-0.649,0.981c1.235,1.488,2.608,2.856,4.107,4.085l0.987-0.645
		c0.722,0.576,1.474,1.121,2.257,1.634l-0.312,1.127c1.623,1.034,3.356,1.917,5.173,2.628l0.731-0.914
		c0.867,0.331,1.751,0.613,2.654,0.859l0.056,1.176c1.85,0.479,3.768,0.775,5.739,0.895l0.413-1.094
		c0.46,0.021,0.926,0.039,1.393,0.039c0.465,0,0.931-0.02,1.394-0.039l0.412,1.094c1.967-0.117,3.889-0.416,5.739-0.895l0.054-1.176
		c0.902-0.246,1.791-0.527,2.651-0.859l0.731,0.917c1.82-0.714,3.55-1.597,5.178-2.631l-0.313-1.127
		c0.779-0.513,1.533-1.058,2.256-1.634l0.987,0.645c1.498-1.229,2.873-2.597,4.108-4.085l-0.65-0.981
		c0.585-0.724,1.135-1.475,1.646-2.252l1.129,0.313c1.037-1.616,1.928-3.339,2.646-5.15l-0.921-0.729
		c0.331-0.866,0.623-1.751,0.871-2.656l1.177-0.053c0.479-1.84,0.785-3.751,0.904-5.712l-1.094-0.41
		c0.021-0.476,0.037-0.949,0.037-1.431c0-0.458-0.016-0.913-0.037-1.368l1.099-0.411c-0.114-1.958-0.415-3.867-0.89-5.707
		l-1.18-0.052c-0.248-0.911-0.537-1.802-0.867-2.677l0.918-0.729c-0.713-1.807-1.596-3.527-2.629-5.144l-1.131,0.312
		c-0.517-0.785-1.074-1.544-1.658-2.275l0.646-0.982c-1.229-1.486-2.599-2.853-4.088-4.08l-0.984,0.647
		c-0.735-0.591-1.496-1.142-2.285-1.659l0.311-1.127c-1.617-1.031-3.341-1.912-5.148-2.624l-0.734,0.913
		c-0.877-0.334-1.775-0.625-2.691-0.871l-0.051-1.175c-1.843-0.474-3.754-0.774-5.716-0.893l-0.406,1.087
		c-0.473-0.021-0.942-0.037-1.418-0.037s-0.947,0.016-1.418,0.037l-0.412-1.089c-1.96,0.119-3.872,0.417-5.714,0.892l-0.053,1.175
		c-0.917,0.248-1.817,0.539-2.696,0.872l-0.732-0.912c-1.812,0.711-3.534,1.592-5.152,2.623l0.312,1.125
		c-0.79,0.517-1.554,1.071-2.287,1.662l-0.982-0.647c-1.491,1.228-2.862,2.596-4.089,4.082l0.647,0.982
		c-0.588,0.729-1.139,1.488-1.656,2.275l-1.132-0.311c-1.033,1.617-1.917,3.336-2.627,5.144l0.914,0.728
		c-0.331,0.875-0.625,1.767-0.87,2.677L18.883,40.162z M48.004,22.568c13.898,0,25.166,11.231,25.166,25.08
		c0,13.851-11.27,25.077-25.166,25.077c-13.898,0-25.166-11.228-25.166-25.077C22.839,33.801,34.106,22.568,48.004,22.568z"/>
	
		<linearGradient id="SVGID_9_" gradientUnits="userSpaceOnUse" x1="1558.6016" y1="2229.8984" x2="1558.6016" y2="2172.2002" gradientTransform="matrix(1 0 0 1 -1510.5977 -2153.4004)">
		<stop  offset="0" style="stop-color:#9C9C9C"/>
		<stop  offset="0.5697" style="stop-color:#D3D3D3"/>
		<stop  offset="1" style="stop-color:#EDEDED"/>
	</linearGradient>
	<path fill="url(#SVGID_9_)" d="M48.004,18.8c-15.987,0-28.946,12.915-28.946,28.848c0,15.934,12.96,28.85,28.945,28.85
		c15.988,0,28.947-12.916,28.947-28.85C76.95,31.717,63.99,18.8,48.004,18.8z M47.999,70.5C35.572,70.5,25.5,60.423,25.5,47.999
		C25.5,35.575,35.572,25.5,47.999,25.5C60.421,25.5,70.5,35.574,70.5,47.999C70.498,60.421,60.42,70.5,47.999,70.5z"/>
	
		<linearGradient id="SVGID_10_" gradientUnits="userSpaceOnUse" x1="1558.5977" y1="2224.9014" x2="1558.5977" y2="2177.9014" gradientTransform="matrix(1 0 0 1 -1510.5977 -2153.4004)">
		<stop  offset="0" style="stop-color:#FFFFFF"/>
		<stop  offset="1" style="stop-color:#1A171B;stop-opacity:0.4"/>
	</linearGradient>
	<path opacity="0.4" fill="url(#SVGID_10_)" enable-background="new    " d="M48,24.5c-12.978,0-23.5,10.521-23.5,23.497
		c0,12.98,10.522,23.503,23.499,23.503C60.981,71.5,71.5,60.977,71.5,47.997C71.501,35.021,60.98,24.5,48,24.5z M47.999,70.5
		C35.572,70.5,25.5,60.423,25.5,47.999S35.572,25.5,47.999,25.5C60.421,25.5,70.5,35.574,70.5,47.999
		C70.498,60.421,60.42,70.5,47.999,70.5z"/>
	
		<linearGradient id="SVGID_11_" gradientUnits="userSpaceOnUse" x1="1558.6016" y1="2229.9326" x2="1558.6016" y2="2172.1689" gradientTransform="matrix(1 0 0 1 -1510.5977 -2153.4004)">
		<stop  offset="0" style="stop-color:#1A171B;stop-opacity:0.6"/>
		<stop  offset="0.6485" style="stop-color:#ACABAC;stop-opacity:0.7091"/>
		<stop  offset="1" style="stop-color:#FFFFFF"/>
	</linearGradient>
	<path opacity="0.4" fill="url(#SVGID_11_)" enable-background="new    " d="M48.004,18.768c-16.001,0-28.978,12.931-28.978,28.88
		c0,15.958,12.977,28.883,28.978,28.883c16.008,0,28.977-12.928,28.977-28.883C76.98,31.699,64.014,18.768,48.004,18.768z
		 M48.004,75.85c-15.624,0-28.292-12.625-28.292-28.201C19.71,32.081,32.38,19.45,48.004,19.45s28.294,12.629,28.294,28.199
		C76.297,63.223,63.628,75.85,48.004,75.85z"/>
</g>
<linearGradient id="SVGID_12_" gradientUnits="userSpaceOnUse" x1="297.6006" y1="-362.1328" x2="297.6006" y2="-285.4004" gradientTransform="matrix(1 0 0 -1 -249.5996 -275.9004)">
	<stop  offset="0" style="stop-color:#1A171B"/>
	<stop  offset="1" style="stop-color:#1A171B;stop-opacity:0.4"/>
</linearGradient>
<polygon opacity="0.15" fill="url(#SVGID_12_)" enable-background="new    " points="59,32.853 55.626,26.667 55.626,12.792 
	52.107,9.5 43.888,9.5 40.372,12.792 40.372,26.669 37,32.853 37,52.367 39.793,55.046 39.793,76.643 41.356,76.643 40.622,81.242 
	44.419,86.232 51.577,86.232 55.376,81.242 54.645,76.643 56.204,76.643 56.204,55.254 59,52.367 "/>
<linearGradient id="SVGID_13_" gradientUnits="userSpaceOnUse" x1="297.5996" y1="-361.1328" x2="297.5996" y2="-286.4004" gradientTransform="matrix(1 0 0 -1 -249.5996 -275.9004)">
	<stop  offset="0" style="stop-color:#1A171B"/>
	<stop  offset="1" style="stop-color:#1A171B;stop-opacity:0.4"/>
</linearGradient>
<polygon opacity="0.2" fill="url(#SVGID_13_)" enable-background="new    " points="54.626,26.667 54.626,12.792 52.107,10.5 
	43.888,10.5 41.372,12.792 41.372,26.669 38,32.853 38,52.367 40.434,54.659 40.793,54.659 40.793,75.643 42.516,75.643 
	41.622,81.242 44.669,85.232 51.327,85.232 54.376,81.242 53.484,75.643 55.204,75.643 55.204,54.659 55.813,54.659 58,52.367 
	58,32.853 "/>
<linearGradient id="SVGID_14_" gradientUnits="userSpaceOnUse" x1="297.5996" y1="-360.1328" x2="297.5996" y2="-287.4004" gradientTransform="matrix(1 0 0 -1 -249.5996 -275.9004)">
	<stop  offset="0" style="stop-color:#1A171B"/>
	<stop  offset="1" style="stop-color:#1A171B;stop-opacity:0.4"/>
</linearGradient>
<polygon opacity="0.25" fill="url(#SVGID_14_)" enable-background="new    " points="53.626,26.667 53.626,12.792 52.107,11.5 
	43.888,11.5 42.372,12.792 42.372,26.669 39,32.853 39,52.367 40.434,53.659 41.793,53.659 41.793,74.643 43.675,74.643 
	42.622,81.242 44.919,84.232 51.077,84.232 53.376,81.242 52.325,74.643 54.204,74.643 54.204,53.659 55.813,53.659 57,52.367 
	57,32.853 "/>
<g>
	<g>
		<g>
			
				<linearGradient id="SVGID_15_" gradientUnits="userSpaceOnUse" x1="433.9512" y1="-188.9722" x2="433.9512" y2="-198.2261" gradientTransform="matrix(0 1 -1 0 -145.5996 -351.5801)">
				<stop  offset="0" style="stop-color:#E7D7B3"/>
				<stop  offset="0.2921" style="stop-color:#E7D7B3"/>
				<stop  offset="0.7247" style="stop-color:#655635"/>
				<stop  offset="1" style="stop-color:#333333"/>
			</linearGradient>
			<polygon fill="url(#SVGID_15_)" points="50.891,83.5 52.626,81.242 43.372,81.242 45.107,83.5 			"/>
			
				<linearGradient id="SVGID_16_" gradientUnits="userSpaceOnUse" x1="428.7959" y1="-188.9722" x2="428.7959" y2="-198.2261" gradientTransform="matrix(0 1 -1 0 -145.5996 -351.5801)">
				<stop  offset="0" style="stop-color:#D0CBB7"/>
				<stop  offset="0.1517" style="stop-color:#FFF8DB"/>
				<stop  offset="0.4719" style="stop-color:#E7D7B3"/>
				<stop  offset="0.8427" style="stop-color:#655635"/>
				<stop  offset="1" style="stop-color:#333333"/>
			</linearGradient>
			<polygon fill="url(#SVGID_16_)" points="51.469,73.189 52.626,81.242 43.372,81.242 44.531,73.189 			"/>
		</g>
		<polygon opacity="0.4" fill="#010000" enable-background="new    " points="44.323,74.637 44.531,73.189 51.469,73.189 
			51.678,74.637 		"/>
	</g>
	<g>
		
			<linearGradient id="SVGID_17_" gradientUnits="userSpaceOnUse" x1="412.2871" y1="-188.3931" x2="412.2871" y2="-198.8042" gradientTransform="matrix(0 1 -1 0 -145.5996 -351.5801)">
			<stop  offset="0" style="stop-color:#D0CBB7"/>
			<stop  offset="0.2303" style="stop-color:#FFF8DB"/>
			<stop  offset="0.5169" style="stop-color:#E7D7B3"/>
			<stop  offset="0.882" style="stop-color:#655635"/>
			<stop  offset="1" style="stop-color:#333333"/>
		</linearGradient>
		<rect x="42.793" y="47.773" fill="url(#SVGID_17_)" width="10.411" height="25.87"/>
		<g>
			<rect x="42.793" y="58.538" fill="#010000" width="10.411" height="2.173"/>
			<rect x="42.793" y="65.049" fill="#010000" width="10.411" height="2.172"/>
			<rect x="42.793" y="71.018" fill="#010000" width="10.411" height="2.174"/>
		</g>
	</g>
	<g>
		
			<linearGradient id="SVGID_18_" gradientUnits="userSpaceOnUse" x1="371.541" y1="-188.9722" x2="371.541" y2="-198.2261" gradientTransform="matrix(0 1 -1 0 -145.5996 -351.5801)">
			<stop  offset="0" style="stop-color:#999DA0"/>
			<stop  offset="0.1742" style="stop-color:#999DA0"/>
			<stop  offset="1" style="stop-color:#000001"/>
		</linearGradient>
		<polygon fill="url(#SVGID_18_)" points="43.951,12.5 52.046,12.5 52.626,13.042 52.626,27.423 43.372,27.423 43.372,13.042 		"/>
		
			<linearGradient id="SVGID_19_" gradientUnits="userSpaceOnUse" x1="381.4453" y1="-185.6001" x2="381.4453" y2="-201.6001" gradientTransform="matrix(0 1 -1 0 -145.5996 -351.5801)">
			<stop  offset="0" style="stop-color:#999DA0"/>
			<stop  offset="0.0674" style="stop-color:#999DA0"/>
			<stop  offset="0.207" style="stop-color:#747779"/>
			<stop  offset="0.3857" style="stop-color:#4B4C4E"/>
			<stop  offset="0.5592" style="stop-color:#2A2B2C"/>
			<stop  offset="0.7233" style="stop-color:#131314"/>
			<stop  offset="0.8744" style="stop-color:#050505"/>
			<stop  offset="1" style="stop-color:#000000"/>
		</linearGradient>
		<polygon fill="url(#SVGID_19_)" points="52.531,26.34 56,32.853 55.42,33.391 40.576,33.391 40,32.853 43.468,26.34 		"/>
		
			<linearGradient id="SVGID_20_" gradientUnits="userSpaceOnUse" x1="394.3359" y1="-185.6001" x2="394.3359" y2="-201.6001" gradientTransform="matrix(0 1 -1 0 -145.5996 -351.5801)">
			<stop  offset="0" style="stop-color:#999DA0"/>
			<stop  offset="0.1742" style="stop-color:#999DA0"/>
			<stop  offset="1" style="stop-color:#000001"/>
		</linearGradient>
		<polygon fill="url(#SVGID_20_)" points="40.576,52.659 55.42,52.659 56,52.117 56,32.853 40,32.853 40,52.117 		"/>
	</g>
</g>
</svg>
